<?xml version="1.0" encoding="UTF-8"?>
<svg height="16px" viewBox="0 0 16 16" width="16px" xmlns="http://www.w3.org/2000/svg">
    <path d="m 7.929688 1.050781 c -3.875 0 -7.054688 3.140625 -7.054688 6.996094 c 0 3.859375 3.179688 7 7.054688 7 c 3.878906 0 7.054687 -3.140625 7.054687 -7 c 0 -3.855469 -3.175781 -6.996094 -7.054687 -6.996094 z m 0 2.335938 c 2.628906 0 4.722656 2.078125 4.722656 4.660156 c 0 2.585937 -2.09375 4.664063 -4.722656 4.664063 c -2.625 0 -4.71875 -2.078126 -4.71875 -4.664063 c 0 -2.582031 2.09375 -4.660156 4.71875 -4.660156 z m 0 0"/>
    <path d="m 10.332031 5.726562 c -0.128906 0.019532 -0.246093 0.089844 -0.324219 0.199219 l -2.527343 3.417969 l -1.433594 -1.363281 c -0.199219 -0.191407 -0.515625 -0.183594 -0.707031 0.015625 c -0.1875 0.199218 -0.179688 0.515625 0.019531 0.707031 l 1.84375 1.757813 c 0.21875 0.207031 0.570313 0.175781 0.75 -0.066407 l 2.859375 -3.878906 c 0.164062 -0.222656 0.117188 -0.535156 -0.105469 -0.699219 c -0.109375 -0.078125 -0.242187 -0.109375 -0.375 -0.089844 z m 0 0"/>
</svg>
